{
  "version": "0.6.2b",
  "modules": [
    {
      "plugin": "Core",
      "version": "0.6.2b",
      "model": "AudioInterface",
      "params": [],
      "data": {
        "audio": {
          "driver": 6,
          "deviceName": "Headphones (High Definition Audio Device)",
          "offset": 0,
          "maxChannels": 8,
          "sampleRate": 48000,
          "blockSize": 256
        }
      },
      "pos": [
        91,
        0
      ]
    },
    {
      "plugin": "Fundamental",
      "version": "0.6.2",
      "model": "Scope",
      "params": [
        {
          "paramId": 0,
          "value": 0.0
        },
        {
          "paramId": 1,
          "value": 0.0
        },
        {
          "paramId": 2,
          "value": 0.0
        },
        {
          "paramId": 3,
          "value": 0.0
        },
        {
          "paramId": 4,
          "value": -14.0
        },
        {
          "paramId": 5,
          "value": 0.0
        },
        {
          "paramId": 6,
          "value": 0.0
        },
        {
          "paramId": 7,
          "value": 0.0
        }
      ],
      "data": {
        "lissajous": 0,
        "external": 0
      },
      "pos": [
        88,
        1
      ]
    },
    {
      "plugin": "AudibleInstruments",
      "version": "0.6.3",
      "model": "Braids",
      "params": [
        {
          "paramId": 6,
          "value": 0.0
        },
        {
          "paramId": 0,
          "value": 0.0
        },
        {
          "paramId": 1,
          "value": -1.33200002
        },
        {
          "paramId": 2,
          "value": 0.0
        },
        {
          "paramId": 3,
          "value": 0.369499981
        },
        {
          "paramId": 4,
          "value": 0.0
        },
        {
          "paramId": 5,
          "value": 0.5
        }
      ],
      "data": {
        "settings": [
          0,
          0,
          0,
          0,
          0,
          0,
          0,
          0,
          0,
          0,
          0,
          0,
          0,
          0,
          0,
          0,
          0,
          0,
          0,
          0
        ],
        "lowCpu": false
      },
      "pos": [
        0,
        0
      ]
    },
    {
      "plugin": "AS",
      "version": "0.6.11",
      "model": "Mixer8ch",
      "params": [
        {
          "paramId": 9,
          "value": 0.0
        },
        {
          "paramId": 10,
          "value": 0.0
        },
        {
          "paramId": 11,
          "value": 0.0
        },
        {
          "paramId": 12,
          "value": 0.0
        },
        {
          "paramId": 13,
          "value": 0.0
        },
        {
          "paramId": 14,
          "value": 0.0
        },
        {
          "paramId": 15,
          "value": 0.0
        },
        {
          "paramId": 16,
          "value": 0.0
        },
        {
          "paramId": 1,
          "value": 0.434000015
        },
        {
          "paramId": 2,
          "value": 0.455000013
        },
        {
          "paramId": 3,
          "value": 0.641000032
        },
        {
          "paramId": 4,
          "value": 0.800000012
        },
        {
          "paramId": 5,
          "value": 0.800000012
        },
        {
          "paramId": 6,
          "value": 0.800000012
        },
        {
          "paramId": 7,
          "value": 0.800000012
        },
        {
          "paramId": 8,
          "value": 0.800000012
        },
        {
          "paramId": 17,
          "value": 0.0
        },
        {
          "paramId": 18,
          "value": 0.0
        },
        {
          "paramId": 19,
          "value": 0.0
        },
        {
          "paramId": 20,
          "value": 0.0
        },
        {
          "paramId": 21,
          "value": 0.0
        },
        {
          "paramId": 22,
          "value": 0.0
        },
        {
          "paramId": 23,
          "value": 0.0
        },
        {
          "paramId": 24,
          "value": 0.0
        },
        {
          "paramId": 0,
          "value": 0.800000012
        },
        {
          "paramId": 25,
          "value": 0.0
        }
      ],
      "data": {
        "as_MixerMutes": [
          0,
          0,
          0,
          0,
          0,
          0,
          0,
          0,
          0
        ]
      },
      "pos": [
        65,
        0
      ]
    },
    {
      "plugin": "VultModulesFree",
      "version": "0.6.15",
      "model": "Debriatus",
      "params": [
        {
          "paramId": 0,
          "value": 0.765999854
        },
        {
          "paramId": 1,
          "value": 0.0
        },
        {
          "paramId": 2,
          "value": 0.0
        },
        {
          "paramId": 3,
          "value": 0.0
        },
        {
          "paramId": 4,
          "value": 0.0
        },
        {
          "paramId": 5,
          "value": 0.0
        },
        {
          "paramId": 6,
          "value": 0.0
        },
        {
          "paramId": 7,
          "value": 0.0
        }
      ],
      "pos": [
        16,
        0
      ]
    },
    {
      "plugin": "AS",
      "version": "0.6.11",
      "model": "VCA",
      "params": [
        {
          "paramId": 0,
          "value": 1.0
        },
        {
          "paramId": 1,
          "value": 0.5
        },
        {
          "paramId": 2,
          "value": 0.0
        },
        {
          "paramId": 3,
          "value": 1.0
        }
      ],
      "pos": [
        26,
        0
      ]
    },
    {
      "plugin": "Befaco",
      "version": "0.6.0",
      "model": "EvenVCO",
      "params": [
        {
          "paramId": 0,
          "value": -5.0
        },
        {
          "paramId": 1,
          "value": -7.0
        },
        {
          "paramId": 2,
          "value": 0.0
        }
      ],
      "pos": [
        32,
        0
      ]
    },
    {
      "plugin": "AudibleInstruments",
      "version": "0.6.3",
      "model": "Branches",
      "params": [
        {
          "paramId": 0,
          "value": 0.560500026
        },
        {
          "paramId": 2,
          "value": 0.0
        },
        {
          "paramId": 1,
          "value": 0.0299999956
        },
        {
          "paramId": 3,
          "value": 0.0
        }
      ],
      "data": {
        "modes": [
          false,
          false
        ]
      },
      "pos": [
        40,
        0
      ]
    },
    {
      "plugin": "squinkylabs-plug1",
      "version": "0.6.9",
      "model": "squinkylabs-coloredNoise",
      "params": [
        {
          "paramId": 0,
          "value": -3.60000134
        },
        {
          "paramId": 1,
          "value": 0.468999982
        }
      ],
      "pos": [
        46,
        0
      ]
    },
    {
      "plugin": "Befaco",
      "version": "0.6.0",
      "model": "Rampage",
      "params": [
        {
          "paramId": 0,
          "value": 1.0
        },
        {
          "paramId": 2,
          "value": 0.0
        },
        {
          "paramId": 4,
          "value": 0.0
        },
        {
          "paramId": 6,
          "value": 0.546000004
        },
        {
          "paramId": 8,
          "value": 0.339000046
        },
        {
          "paramId": 10,
          "value": 1.0
        },
        {
          "paramId": 1,
          "value": 1.0
        },
        {
          "paramId": 3,
          "value": 0.0
        },
        {
          "paramId": 5,
          "value": 0.0
        },
        {
          "paramId": 7,
          "value": 0.377999991
        },
        {
          "paramId": 9,
          "value": 0.650999904
        },
        {
          "paramId": 11,
          "value": 1.0
        },
        {
          "paramId": 12,
          "value": 0.5
        }
      ],
      "pos": [
        0,
        1
      ]
    },
    {
      "plugin": "HetrickCV",
      "version": "0.6.0",
      "model": "Crackle",
      "params": [
        {
          "paramId": 0,
          "value": 1.72099829
        },
        {
          "paramId": 1,
          "value": 0.0
        }
      ],
      "pos": [
        18,
        1
      ]
    },
    {
      "plugin": "AudibleInstruments",
      "version": "0.6.3",
      "model": "Plaits",
      "params": [
        {
          "paramId": 0,
          "value": 0.0
        },
        {
          "paramId": 1,
          "value": 0.0
        },
        {
          "paramId": 2,
          "value": -1.33600044
        },
        {
          "paramId": 3,
          "value": 0.549999952
        },
        {
          "paramId": 4,
          "value": 0.660499632
        },
        {
          "paramId": 5,
          "value": 0.650999904
        },
        {
          "paramId": 6,
          "value": -0.492000014
        },
        {
          "paramId": 7,
          "value": 1.0
        },
        {
          "paramId": 8,
          "value": 0.426000029
        }
      ],
      "data": {
        "lowCpu": false,
        "model": 0,
        "lpgColor": 0.5,
        "decay": 0.5
      },
      "pos": [
        24,
        1
      ]
    },
    {
      "plugin": "AS",
      "version": "0.6.11",
      "model": "BPMClock",
      "params": [
        {
          "paramId": 0,
          "value": 196.76503
        },
        {
          "paramId": 1,
          "value": 1.0
        },
        {
          "paramId": 2,
          "value": 4.0
        },
        {
          "paramId": 3,
          "value": 1.0
        },
        {
          "paramId": 5,
          "value": 0.0
        },
        {
          "paramId": 4,
          "value": 0.0
        }
      ],
      "data": {
        "run": [
          1
        ]
      },
      "pos": [
        36,
        1
      ]
    },
    {
      "plugin": "ML_modules",
      "version": "0.6.2",
      "model": "SH8",
      "params": [],
      "pos": [
        42,
        1
      ]
    },
    {
      "plugin": "AudibleInstruments",
      "version": "0.6.3",
      "model": "Branches",
      "params": [
        {
          "paramId": 0,
          "value": 0.630999625
        },
        {
          "paramId": 2,
          "value": 0.0
        },
        {
          "paramId": 1,
          "value": 0.0284999963
        },
        {
          "paramId": 3,
          "value": 0.0
        }
      ],
      "data": {
        "modes": [
          false,
          false
        ]
      },
      "pos": [
        50,
        1
      ]
    },
    {
      "plugin": "AS",
      "version": "0.6.11",
      "model": "TriLFO",
      "params": [
        {
          "paramId": 2,
          "value": 0.511999905
        },
        {
          "paramId": 0,
          "value": 1.0
        },
        {
          "paramId": 1,
          "value": 1.0
        },
        {
          "paramId": 5,
          "value": -1.20999849
        },
        {
          "paramId": 3,
          "value": 1.0
        },
        {
          "paramId": 4,
          "value": 1.0
        },
        {
          "paramId": 8,
          "value": 3.83700132
        },
        {
          "paramId": 6,
          "value": 0.0
        },
        {
          "paramId": 7,
          "value": 0.0
        }
      ],
      "pos": [
        52,
        0
      ]
    },
    {
      "plugin": "ML_modules",
      "version": "0.6.2",
      "model": "Sum8",
      "params": [],
      "pos": [
        62,
        0
      ]
    },
    {
      "plugin": "AudibleInstruments",
      "version": "0.6.3",
      "model": "Blinds",
      "params": [
        {
          "paramId": 0,
          "value": 0.312999845
        },
        {
          "paramId": 1,
          "value": 0.0
        },
        {
          "paramId": 2,
          "value": 0.0
        },
        {
          "paramId": 3,
          "value": 0.0
        },
        {
          "paramId": 4,
          "value": -0.801999807
        },
        {
          "paramId": 5,
          "value": 0.0
        },
        {
          "paramId": 6,
          "value": 0.0
        },
        {
          "paramId": 7,
          "value": 0.0
        }
      ],
      "pos": [
        56,
        1
      ]
    },
    {
      "plugin": "AudibleInstruments",
      "version": "0.6.3",
      "model": "Clouds",
      "params": [
        {
          "paramId": 3,
          "value": 0.318499982
        },
        {
          "paramId": 4,
          "value": 0.735499918
        },
        {
          "paramId": 5,
          "value": -0.391999573
        },
        {
          "paramId": 6,
          "value": 0.759500086
        },
        {
          "paramId": 7,
          "value": 0.5
        },
        {
          "paramId": 8,
          "value": 0.400999904
        },
        {
          "paramId": 9,
          "value": 0.684500039
        },
        {
          "paramId": 10,
          "value": 0.0
        },
        {
          "paramId": 11,
          "value": 0.397499979
        },
        {
          "paramId": 12,
          "value": 0.363000035
        },
        {
          "paramId": 0,
          "value": 0.0
        },
        {
          "paramId": 1,
          "value": 0.0
        },
        {
          "paramId": 2,
          "value": 0.0
        }
      ],
      "data": {
        "playback": 0,
        "quality": 0,
        "blendMode": 0
      },
      "pos": [
        68,
        1
      ]
    }
  ],
  "wires": [
    {
      "color": "#c9b70e",
      "outputModuleId": 3,
      "outputId": 0,
      "inputModuleId": 0,
      "inputId": 0
    },
    {
      "color": "#c91847",
      "outputModuleId": 3,
      "outputId": 1,
      "inputModuleId": 0,
      "inputId": 1
    },
    {
      "color": "#0c8e15",
      "outputModuleId": 3,
      "outputId": 0,
      "inputModuleId": 1,
      "inputId": 0
    },
    {
      "color": "#0986ad",
      "outputModuleId": 3,
      "outputId": 1,
      "inputModuleId": 1,
      "inputId": 1
    },
    {
      "color": "#c9b70e",
      "outputModuleId": 2,
      "outputId": 0,
      "inputModuleId": 4,
      "inputId": 0
    },
    {
      "color": "#c91847",
      "outputModuleId": 4,
      "outputId": 0,
      "inputModuleId": 7,
      "inputId": 0
    },
    {
      "color": "#0c8e15",
      "outputModuleId": 6,
      "outputId": 1,
      "inputModuleId": 2,
      "inputId": 1
    },
    {
      "color": "#0986ad",
      "outputModuleId": 7,
      "outputId": 0,
      "inputModuleId": 3,
      "inputId": 1
    },
    {
      "color": "#c9b70e",
      "outputModuleId": 8,
      "outputId": 0,
      "inputModuleId": 4,
      "inputId": 5
    },
    {
      "color": "#c91847",
      "outputModuleId": 4,
      "outputId": 1,
      "inputModuleId": 6,
      "inputId": 1
    },
    {
      "color": "#0c8e15",
      "outputModuleId": 9,
      "outputId": 6,
      "inputModuleId": 2,
      "inputId": 4
    },
    {
      "color": "#0986ad",
      "outputModuleId": 6,
      "outputId": 4,
      "inputModuleId": 7,
      "inputId": 1
    },
    {
      "color": "#c9b70e",
      "outputModuleId": 7,
      "outputId": 3,
      "inputModuleId": 9,
      "inputId": 3
    },
    {
      "color": "#c91847",
      "outputModuleId": 9,
      "outputId": 10,
      "inputModuleId": 9,
      "inputId": 5
    },
    {
      "color": "#0c8e15",
      "outputModuleId": 9,
      "outputId": 9,
      "inputModuleId": 9,
      "inputId": 7
    },
    {
      "color": "#0986ad",
      "outputModuleId": 9,
      "outputId": 10,
      "inputModuleId": 9,
      "inputId": 6
    },
    {
      "color": "#c9b70e",
      "outputModuleId": 9,
      "outputId": 10,
      "inputModuleId": 9,
      "inputId": 4
    },
    {
      "color": "#c91847",
      "outputModuleId": 9,
      "outputId": 8,
      "inputModuleId": 9,
      "inputId": 2
    },
    {
      "color": "#0c8e15",
      "outputModuleId": 9,
      "outputId": 7,
      "inputModuleId": 6,
      "inputId": 2
    },
    {
      "color": "#0986ad",
      "outputModuleId": 6,
      "outputId": 2,
      "inputModuleId": 3,
      "inputId": 4
    },
    {
      "color": "#c9b70e",
      "outputModuleId": 12,
      "outputId": 2,
      "inputModuleId": 14,
      "inputId": 1
    },
    {
      "color": "#c91847",
      "outputModuleId": 14,
      "outputId": 0,
      "inputModuleId": 13,
      "inputId": 8
    },
    {
      "color": "#0c8e15",
      "outputModuleId": 14,
      "outputId": 2,
      "inputModuleId": 13,
      "inputId": 9
    },
    {
      "color": "#c9b70e",
      "outputModuleId": 10,
      "outputId": 0,
      "inputModuleId": 5,
      "inputId": 1
    },
    {
      "color": "#0c8e15",
      "outputModuleId": 11,
      "outputId": 0,
      "inputModuleId": 3,
      "inputId": 7
    },
    {
      "color": "#0c8e15",
      "outputModuleId": 13,
      "outputId": 1,
      "inputModuleId": 11,
      "inputId": 0
    },
    {
      "color": "#0986ad",
      "outputModuleId": 13,
      "outputId": 0,
      "inputModuleId": 11,
      "inputId": 7
    },
    {
      "color": "#c9b70e",
      "outputModuleId": 5,
      "outputId": 0,
      "inputModuleId": 13,
      "inputId": 0
    },
    {
      "color": "#c91847",
      "outputModuleId": 5,
      "outputId": 0,
      "inputModuleId": 13,
      "inputId": 1
    },
    {
      "color": "#0c8e15",
      "outputModuleId": 14,
      "outputId": 1,
      "inputModuleId": 14,
      "inputId": 0
    },
    {
      "color": "#c9b70e",
      "outputModuleId": 15,
      "outputId": 1,
      "inputModuleId": 11,
      "inputId": 3
    },
    {
      "color": "#c91847",
      "outputModuleId": 10,
      "outputId": 0,
      "inputModuleId": 11,
      "inputId": 2
    },
    {
      "color": "#0c8e15",
      "outputModuleId": 9,
      "outputId": 7,
      "inputModuleId": 11,
      "inputId": 4
    },
    {
      "color": "#c9b70e",
      "outputModuleId": 15,
      "outputId": 2,
      "inputModuleId": 16,
      "inputId": 0
    },
    {
      "color": "#c91847",
      "outputModuleId": 15,
      "outputId": 11,
      "inputModuleId": 17,
      "inputId": 0
    },
    {
      "color": "#0c8e15",
      "outputModuleId": 15,
      "outputId": 4,
      "inputModuleId": 16,
      "inputId": 2
    },
    {
      "color": "#c9b70e",
      "outputModuleId": 17,
      "outputId": 0,
      "inputModuleId": 16,
      "inputId": 1
    },
    {
      "color": "#c91847",
      "outputModuleId": 11,
      "outputId": 0,
      "inputModuleId": 18,
      "inputId": 6
    },
    {
      "color": "#0c8e15",
      "outputModuleId": 11,
      "outputId": 1,
      "inputModuleId": 18,
      "inputId": 7
    },
    {
      "color": "#c9b70e",
      "outputModuleId": 18,
      "outputId": 1,
      "inputModuleId": 11,
      "inputId": 1
    },
    {
      "color": "#c91847",
      "outputModuleId": 9,
      "outputId": 8,
      "inputModuleId": 18,
      "inputId": 1
    },
    {
      "color": "#0c8e15",
      "outputModuleId": 18,
      "outputId": 0,
      "inputModuleId": 3,
      "inputId": 10
    },
    {
      "color": "#0986ad",
      "outputModuleId": 13,
      "outputId": 0,
      "inputModuleId": 18,
      "inputId": 4
    },
    {
      "color": "#c9b70e",
      "outputModuleId": 8,
      "outputId": 0,
      "inputModuleId": 18,
      "inputId": 5
    },
    {
      "color": "#c91847",
      "outputModuleId": 15,
      "outputId": 0,
      "inputModuleId": 8,
      "inputId": 0
    },
    {
      "color": "#0c8e15",
      "outputModuleId": 9,
      "outputId": 9,
      "inputModuleId": 18,
      "inputId": 9
    },
    {
      "color": "#0986ad",
      "outputModuleId": 9,
      "outputId": 10,
      "inputModuleId": 18,
      "inputId": 8
    },
    {
      "color": "#c9b70e",
      "outputModuleId": 9,
      "outputId": 2,
      "inputModuleId": 13,
      "inputId": 10
    },
    {
      "color": "#c91847",
      "outputModuleId": 8,
      "outputId": 0,
      "inputModuleId": 13,
      "inputId": 2
    },
    {
      "color": "#0c8e15",
      "outputModuleId": 13,
      "outputId": 2,
      "inputModuleId": 18,
      "inputId": 3
    }
  ]
}