{
  "version": "0.6.0",
  "modules": [
    {
      "plugin": "Core",
      "version": "0.6.0",
      "model": "AudioInterface",
      "pos": [
        16,
        0
      ],
      "params": [],
      "data": {
        "audio": {
          "driver": 1,
          "deviceName": "default",
          "offset": 0,
          "maxChannels": 8,
          "sampleRate": 44100,
          "blockSize": 256
        }
      }
    },
    {
      "plugin": "Fundamental",
      "version": "0.6.0",
      "model": "Scope",
      "pos": [
        0,
        0
      ],
      "params": [
        {
          "paramId": 0,
          "value": -1.0
        },
        {
          "paramId": 1,
          "value": 0.0
        },
        {
          "paramId": 2,
          "value": 0.0
        },
        {
          "paramId": 3,
          "value": 0.0
        },
        {
          "paramId": 4,
          "value": -15.9249964
        },
        {
          "paramId": 5,
          "value": 0.0
        },
        {
          "paramId": 6,
          "value": 0.0
        },
        {
          "paramId": 7,
          "value": 0.0
        }
      ],
      "data": {
        "lissajous": 0,
        "external": 0
      }
    },
    {
      "plugin": "DrumKit",
      "version": "0.6.0",
      "model": "Bass Drum 9",
      "pos": [
        55,
        1
      ],
      "params": [
        {
          "paramId": 0,
          "value": 16.0
        },
        {
          "paramId": 1,
          "value": 3.0
        }
      ]
    },
    {
      "plugin": "DrumKit",
      "version": "0.6.0",
      "model": "Snare Drum N",
      "pos": [
        58,
        1
      ],
      "params": [
        {
          "paramId": 0,
          "value": 8.0
        },
        {
          "paramId": 1,
          "value": 8.0
        }
      ]
    },
    {
      "plugin": "DrumKit",
      "version": "0.6.0",
      "model": "Closed HiHat",
      "pos": [
        61,
        1
      ],
      "params": [
        {
          "paramId": 0,
          "value": 8.0
        },
        {
          "paramId": 1,
          "value": 8.0
        }
      ]
    },
    {
      "plugin": "DrumKit",
      "version": "0.6.0",
      "model": "Open HiHat",
      "pos": [
        64,
        1
      ],
      "params": [
        {
          "paramId": 0,
          "value": 14.0
        },
        {
          "paramId": 1,
          "value": 7.0
        }
      ]
    },
    {
      "plugin": "AS",
      "version": "0.6.5",
      "model": "SEQ16",
      "pos": [
        67,
        1
      ],
      "params": [
        {
          "paramId": 0,
          "value": 2.0
        },
        {
          "paramId": 1,
          "value": 0.0
        },
        {
          "paramId": 2,
          "value": 0.0
        },
        {
          "paramId": 4,
          "value": 0.0
        },
        {
          "paramId": 5,
          "value": 0.0
        },
        {
          "paramId": 6,
          "value": 0.0
        },
        {
          "paramId": 7,
          "value": 0.0
        },
        {
          "paramId": 3,
          "value": 7.85498667
        },
        {
          "paramId": 8,
          "value": 0.0
        },
        {
          "paramId": 24,
          "value": 0.0
        },
        {
          "paramId": 40,
          "value": 0.0
        },
        {
          "paramId": 56,
          "value": 0.0
        },
        {
          "paramId": 9,
          "value": 0.0
        },
        {
          "paramId": 25,
          "value": 0.0
        },
        {
          "paramId": 41,
          "value": 0.0
        },
        {
          "paramId": 57,
          "value": 0.0
        },
        {
          "paramId": 10,
          "value": 0.0
        },
        {
          "paramId": 26,
          "value": 0.0
        },
        {
          "paramId": 42,
          "value": 0.0
        },
        {
          "paramId": 58,
          "value": 0.0
        },
        {
          "paramId": 11,
          "value": 0.0
        },
        {
          "paramId": 27,
          "value": 0.0
        },
        {
          "paramId": 43,
          "value": 0.0
        },
        {
          "paramId": 59,
          "value": 0.0
        },
        {
          "paramId": 12,
          "value": 0.0
        },
        {
          "paramId": 28,
          "value": 0.0
        },
        {
          "paramId": 44,
          "value": 0.0
        },
        {
          "paramId": 60,
          "value": 0.0
        },
        {
          "paramId": 13,
          "value": 0.0
        },
        {
          "paramId": 29,
          "value": 0.0
        },
        {
          "paramId": 45,
          "value": 0.0
        },
        {
          "paramId": 61,
          "value": 0.0
        },
        {
          "paramId": 14,
          "value": 0.0
        },
        {
          "paramId": 30,
          "value": 0.0
        },
        {
          "paramId": 46,
          "value": 0.0
        },
        {
          "paramId": 62,
          "value": 0.0
        },
        {
          "paramId": 15,
          "value": 0.0
        },
        {
          "paramId": 31,
          "value": 0.0
        },
        {
          "paramId": 47,
          "value": 0.0
        },
        {
          "paramId": 63,
          "value": 0.0
        },
        {
          "paramId": 16,
          "value": 0.0
        },
        {
          "paramId": 32,
          "value": 0.0
        },
        {
          "paramId": 48,
          "value": 0.0
        },
        {
          "paramId": 64,
          "value": 0.0
        },
        {
          "paramId": 17,
          "value": 0.0
        },
        {
          "paramId": 33,
          "value": 0.0
        },
        {
          "paramId": 49,
          "value": 0.0
        },
        {
          "paramId": 65,
          "value": 0.0
        },
        {
          "paramId": 18,
          "value": 0.0
        },
        {
          "paramId": 34,
          "value": 0.0
        },
        {
          "paramId": 50,
          "value": 0.0
        },
        {
          "paramId": 66,
          "value": 0.0
        },
        {
          "paramId": 19,
          "value": 0.0
        },
        {
          "paramId": 35,
          "value": 0.0
        },
        {
          "paramId": 51,
          "value": 0.0
        },
        {
          "paramId": 67,
          "value": 0.0
        },
        {
          "paramId": 20,
          "value": 0.0
        },
        {
          "paramId": 36,
          "value": 0.0
        },
        {
          "paramId": 52,
          "value": 0.0
        },
        {
          "paramId": 68,
          "value": 0.0
        },
        {
          "paramId": 21,
          "value": 0.0
        },
        {
          "paramId": 37,
          "value": 0.0
        },
        {
          "paramId": 53,
          "value": 0.0
        },
        {
          "paramId": 69,
          "value": 0.0
        },
        {
          "paramId": 22,
          "value": 0.0
        },
        {
          "paramId": 38,
          "value": 0.0
        },
        {
          "paramId": 54,
          "value": 0.0
        },
        {
          "paramId": 70,
          "value": 0.0
        },
        {
          "paramId": 23,
          "value": 0.0
        },
        {
          "paramId": 39,
          "value": 0.0
        },
        {
          "paramId": 55,
          "value": 0.0
        },
        {
          "paramId": 71,
          "value": 0.0
        }
      ],
      "data": {
        "running": true,
        "gates": [
          1,
          1,
          1,
          1,
          1,
          1,
          1,
          1,
          1,
          1,
          1,
          1,
          1,
          1,
          1,
          1
        ],
        "gateMode": 0
      }
    },
    {
      "plugin": "DrumKit",
      "version": "0.6.0",
      "model": "Bass Drum 9",
      "pos": [
        52,
        1
      ],
      "params": [
        {
          "paramId": 0,
          "value": 16.0
        },
        {
          "paramId": 1,
          "value": 8.0
        }
      ]
    },
    {
      "plugin": "AS",
      "version": "0.6.5",
      "model": "Mixer8ch",
      "pos": [
        26,
        0
      ],
      "params": [
        {
          "paramId": 9,
          "value": 0.0
        },
        {
          "paramId": 10,
          "value": 0.0
        },
        {
          "paramId": 11,
          "value": 0.0
        },
        {
          "paramId": 12,
          "value": 0.0
        },
        {
          "paramId": 13,
          "value": 0.0
        },
        {
          "paramId": 14,
          "value": 0.0
        },
        {
          "paramId": 15,
          "value": 0.0
        },
        {
          "paramId": 16,
          "value": 0.0
        },
        {
          "paramId": 1,
          "value": 0.800000012
        },
        {
          "paramId": 2,
          "value": 0.800000012
        },
        {
          "paramId": 3,
          "value": 0.800000012
        },
        {
          "paramId": 4,
          "value": 0.800000012
        },
        {
          "paramId": 5,
          "value": 0.800000012
        },
        {
          "paramId": 6,
          "value": 0.800000012
        },
        {
          "paramId": 7,
          "value": 0.800000012
        },
        {
          "paramId": 8,
          "value": 0.800000012
        },
        {
          "paramId": 17,
          "value": 0.0
        },
        {
          "paramId": 18,
          "value": 0.0
        },
        {
          "paramId": 19,
          "value": 0.0
        },
        {
          "paramId": 20,
          "value": 0.0
        },
        {
          "paramId": 21,
          "value": 0.0
        },
        {
          "paramId": 22,
          "value": 0.0
        },
        {
          "paramId": 23,
          "value": 0.0
        },
        {
          "paramId": 24,
          "value": 0.0
        },
        {
          "paramId": 0,
          "value": 0.800000012
        },
        {
          "paramId": 25,
          "value": 0.0
        }
      ],
      "data": {
        "as_MixerMutes": [
          0,
          0,
          0,
          0,
          0,
          0,
          0,
          0,
          0
        ]
      }
    },
    {
      "plugin": "SynthKit",
      "version": "0.6.0",
      "model": "Addition",
      "pos": [
        13,
        0
      ],
      "params": []
    },
    {
      "plugin": "Fundamental",
      "version": "0.6.0",
      "model": "Scope",
      "pos": [
        0,
        1
      ],
      "params": [
        {
          "paramId": 0,
          "value": -1.0
        },
        {
          "paramId": 1,
          "value": 0.0
        },
        {
          "paramId": 2,
          "value": 0.0
        },
        {
          "paramId": 3,
          "value": 0.0
        },
        {
          "paramId": 4,
          "value": -15.8499994
        },
        {
          "paramId": 5,
          "value": 0.0
        },
        {
          "paramId": 6,
          "value": 0.0
        },
        {
          "paramId": 7,
          "value": 0.0
        }
      ],
      "data": {
        "lissajous": 0,
        "external": 0
      }
    },
    {
      "plugin": "AS",
      "version": "0.6.5",
      "model": "Mixer8ch",
      "pos": [
        26,
        1
      ],
      "params": [
        {
          "paramId": 9,
          "value": 0.0
        },
        {
          "paramId": 10,
          "value": 0.0
        },
        {
          "paramId": 11,
          "value": 0.0
        },
        {
          "paramId": 12,
          "value": 0.0
        },
        {
          "paramId": 13,
          "value": 0.0
        },
        {
          "paramId": 14,
          "value": 0.0
        },
        {
          "paramId": 15,
          "value": 0.0
        },
        {
          "paramId": 16,
          "value": 0.0
        },
        {
          "paramId": 1,
          "value": 0.800000012
        },
        {
          "paramId": 2,
          "value": 0.800000012
        },
        {
          "paramId": 3,
          "value": 0.800000012
        },
        {
          "paramId": 4,
          "value": 0.800000012
        },
        {
          "paramId": 5,
          "value": 0.800000012
        },
        {
          "paramId": 6,
          "value": 0.800000012
        },
        {
          "paramId": 7,
          "value": 0.800000012
        },
        {
          "paramId": 8,
          "value": 0.800000012
        },
        {
          "paramId": 17,
          "value": 0.0
        },
        {
          "paramId": 18,
          "value": 0.0
        },
        {
          "paramId": 19,
          "value": 0.0
        },
        {
          "paramId": 20,
          "value": 0.0
        },
        {
          "paramId": 21,
          "value": 0.0
        },
        {
          "paramId": 22,
          "value": 0.0
        },
        {
          "paramId": 23,
          "value": 0.0
        },
        {
          "paramId": 24,
          "value": 0.0
        },
        {
          "paramId": 0,
          "value": 0.800000012
        },
        {
          "paramId": 25,
          "value": 0.0
        }
      ],
      "data": {
        "as_MixerMutes": [
          0,
          0,
          0,
          0,
          0,
          0,
          0,
          0,
          0
        ]
      }
    },
    {
      "plugin": "SynthKit",
      "version": "0.6.0",
      "model": "Addition",
      "pos": [
        13,
        1
      ],
      "params": []
    },
    {
      "plugin": "Core",
      "version": "0.6.0",
      "model": "Blank",
      "pos": [
        16,
        1
      ],
      "params": [],
      "width": 150.0
    }
  ],
  "wires": [
    {
      "color": {
        "r": 0.0352941193,
        "g": 0.525490224,
        "b": 0.678431392,
        "a": 1.0
      },
      "outputModuleId": 2,
      "outputId": 0,
      "inputModuleId": 11,
      "inputId": 10
    },
    {
      "color": {
        "r": 0.788235366,
        "g": 0.0941176564,
        "b": 0.278431386,
        "a": 1.0
      },
      "outputModuleId": 6,
      "outputId": 7,
      "inputModuleId": 2,
      "inputId": 0
    },
    {
      "color": {
        "r": 0.0470588282,
        "g": 0.556862772,
        "b": 0.0823529437,
        "a": 1.0
      },
      "outputModuleId": 6,
      "outputId": 8,
      "inputModuleId": 2,
      "inputId": 1
    },
    {
      "color": {
        "r": 0.788235366,
        "g": 0.717647076,
        "b": 0.054901965,
        "a": 1.0
      },
      "outputModuleId": 2,
      "outputId": 1,
      "inputModuleId": 11,
      "inputId": 13
    },
    {
      "color": {
        "r": 0.788235366,
        "g": 0.0941176564,
        "b": 0.278431386,
        "a": 1.0
      },
      "outputModuleId": 3,
      "outputId": 0,
      "inputModuleId": 11,
      "inputId": 7
    },
    {
      "color": {
        "r": 0.0470588282,
        "g": 0.556862772,
        "b": 0.0823529437,
        "a": 1.0
      },
      "outputModuleId": 3,
      "outputId": 1,
      "inputModuleId": 11,
      "inputId": 19
    },
    {
      "color": {
        "r": 0.788235366,
        "g": 0.717647076,
        "b": 0.054901965,
        "a": 1.0
      },
      "outputModuleId": 6,
      "outputId": 6,
      "inputModuleId": 3,
      "inputId": 0
    },
    {
      "color": {
        "r": 0.788235366,
        "g": 0.0941176564,
        "b": 0.278431386,
        "a": 1.0
      },
      "outputModuleId": 6,
      "outputId": 10,
      "inputModuleId": 3,
      "inputId": 1
    },
    {
      "color": {
        "r": 0.788235366,
        "g": 0.717647076,
        "b": 0.054901965,
        "a": 1.0
      },
      "outputModuleId": 6,
      "outputId": 5,
      "inputModuleId": 7,
      "inputId": 0
    },
    {
      "color": {
        "r": 0.0470588282,
        "g": 0.556862772,
        "b": 0.0823529437,
        "a": 1.0
      },
      "outputModuleId": 5,
      "outputId": 0,
      "inputModuleId": 11,
      "inputId": 22
    },
    {
      "color": {
        "r": 0.0352941193,
        "g": 0.525490224,
        "b": 0.678431392,
        "a": 1.0
      },
      "outputModuleId": 6,
      "outputId": 11,
      "inputModuleId": 5,
      "inputId": 0
    },
    {
      "color": {
        "r": 0.788235366,
        "g": 0.717647076,
        "b": 0.054901965,
        "a": 1.0
      },
      "outputModuleId": 6,
      "outputId": 9,
      "inputModuleId": 4,
      "inputId": 0
    },
    {
      "color": {
        "r": 0.788235366,
        "g": 0.0941176564,
        "b": 0.278431386,
        "a": 1.0
      },
      "outputModuleId": 4,
      "outputId": 0,
      "inputModuleId": 11,
      "inputId": 16
    },
    {
      "color": {
        "r": 0.0470588282,
        "g": 0.556862772,
        "b": 0.0823529437,
        "a": 1.0
      },
      "outputModuleId": 8,
      "outputId": 0,
      "inputModuleId": 0,
      "inputId": 4
    },
    {
      "color": {
        "r": 0.0352941193,
        "g": 0.525490224,
        "b": 0.678431392,
        "a": 1.0
      },
      "outputModuleId": 8,
      "outputId": 1,
      "inputModuleId": 0,
      "inputId": 5
    },
    {
      "color": {
        "r": 0.0352941193,
        "g": 0.525490224,
        "b": 0.678431392,
        "a": 1.0
      },
      "outputModuleId": 9,
      "outputId": 0,
      "inputModuleId": 1,
      "inputId": 0
    },
    {
      "color": {
        "r": 0.788235366,
        "g": 0.717647076,
        "b": 0.054901965,
        "a": 1.0
      },
      "outputModuleId": 8,
      "outputId": 0,
      "inputModuleId": 9,
      "inputId": 0
    },
    {
      "color": {
        "r": 0.788235366,
        "g": 0.0941176564,
        "b": 0.278431386,
        "a": 1.0
      },
      "outputModuleId": 8,
      "outputId": 1,
      "inputModuleId": 9,
      "inputId": 1
    },
    {
      "color": {
        "r": 0.0470588282,
        "g": 0.556862772,
        "b": 0.0823529437,
        "a": 1.0
      },
      "outputModuleId": 7,
      "outputId": 0,
      "inputModuleId": 11,
      "inputId": 4
    },
    {
      "color": {
        "r": 0.788235366,
        "g": 0.0941176564,
        "b": 0.278431386,
        "a": 1.0
      },
      "outputModuleId": 12,
      "outputId": 0,
      "inputModuleId": 10,
      "inputId": 0
    },
    {
      "color": {
        "r": 0.0352941193,
        "g": 0.525490224,
        "b": 0.678431392,
        "a": 1.0
      },
      "outputModuleId": 12,
      "outputId": 0,
      "inputModuleId": 8,
      "inputId": 1
    },
    {
      "color": {
        "r": 0.788235366,
        "g": 0.717647076,
        "b": 0.054901965,
        "a": 1.0
      },
      "outputModuleId": 11,
      "outputId": 0,
      "inputModuleId": 12,
      "inputId": 0
    },
    {
      "color": {
        "r": 0.788235366,
        "g": 0.0941176564,
        "b": 0.278431386,
        "a": 1.0
      },
      "outputModuleId": 11,
      "outputId": 1,
      "inputModuleId": 12,
      "inputId": 1
    }
  ]
}