{
  "version": "0.6.2b",
  "modules": [
    {
      "plugin": "Core",
      "version": "0.6.2b",
      "model": "AudioInterface",
      "params": [],
      "data": {
        "audio": {
          "driver": 6,
          "deviceName": "Headphones (High Definition Audio Device)",
          "offset": 0,
          "maxChannels": 8,
          "sampleRate": 48000,
          "blockSize": 256
        }
      },
      "pos": [
        91,
        0
      ]
    },
    {
      "plugin": "Fundamental",
      "version": "0.6.2",
      "model": "Scope",
      "params": [
        {
          "paramId": 0,
          "value": 0.0
        },
        {
          "paramId": 1,
          "value": 0.0
        },
        {
          "paramId": 2,
          "value": 0.0
        },
        {
          "paramId": 3,
          "value": 0.0
        },
        {
          "paramId": 4,
          "value": -14.0
        },
        {
          "paramId": 5,
          "value": 0.0
        },
        {
          "paramId": 6,
          "value": 0.0
        },
        {
          "paramId": 7,
          "value": 0.0
        }
      ],
      "data": {
        "lissajous": 0,
        "external": 0
      },
      "pos": [
        88,
        1
      ]
    },
    {
      "plugin": "AS",
      "version": "0.6.12",
      "model": "Mixer8ch",
      "params": [
        {
          "paramId": 9,
          "value": 0.0
        },
        {
          "paramId": 10,
          "value": 0.0
        },
        {
          "paramId": 11,
          "value": 0.0
        },
        {
          "paramId": 12,
          "value": 0.0
        },
        {
          "paramId": 13,
          "value": 0.0
        },
        {
          "paramId": 14,
          "value": 0.0
        },
        {
          "paramId": 15,
          "value": 0.0
        },
        {
          "paramId": 16,
          "value": 0.0
        },
        {
          "paramId": 1,
          "value": 0.229999915
        },
        {
          "paramId": 2,
          "value": 0.800000012
        },
        {
          "paramId": 3,
          "value": 0.800000012
        },
        {
          "paramId": 4,
          "value": 0.800000012
        },
        {
          "paramId": 5,
          "value": 0.800000012
        },
        {
          "paramId": 6,
          "value": 0.800000012
        },
        {
          "paramId": 7,
          "value": 0.800000012
        },
        {
          "paramId": 8,
          "value": 0.800000012
        },
        {
          "paramId": 17,
          "value": 0.0
        },
        {
          "paramId": 18,
          "value": 0.0
        },
        {
          "paramId": 19,
          "value": 0.0
        },
        {
          "paramId": 20,
          "value": 0.0
        },
        {
          "paramId": 21,
          "value": 0.0
        },
        {
          "paramId": 22,
          "value": 0.0
        },
        {
          "paramId": 23,
          "value": 0.0
        },
        {
          "paramId": 24,
          "value": 0.0
        },
        {
          "paramId": 0,
          "value": 0.800000012
        },
        {
          "paramId": 25,
          "value": 0.0
        }
      ],
      "data": {
        "as_MixerMutes": [
          0,
          0,
          0,
          0,
          0,
          0,
          0,
          0,
          0
        ]
      },
      "pos": [
        65,
        0
      ]
    },
    {
      "plugin": "AudibleInstruments",
      "version": "0.6.3",
      "model": "Plaits",
      "params": [
        {
          "paramId": 0,
          "value": 0.0
        },
        {
          "paramId": 1,
          "value": 0.0
        },
        {
          "paramId": 2,
          "value": 0.0
        },
        {
          "paramId": 3,
          "value": 0.5
        },
        {
          "paramId": 4,
          "value": 0.5
        },
        {
          "paramId": 5,
          "value": 0.5
        },
        {
          "paramId": 6,
          "value": 0.0
        },
        {
          "paramId": 7,
          "value": 0.0
        },
        {
          "paramId": 8,
          "value": 0.0
        }
      ],
      "data": {
        "lowCpu": false,
        "model": 0,
        "lpgColor": 0.5,
        "decay": 0.5
      },
      "pos": [
        43,
        0
      ]
    },
    {
      "plugin": "Fundamental",
      "version": "0.6.2",
      "model": "VCMixer",
      "params": [
        {
          "paramId": 0,
          "value": 1.0
        },
        {
          "paramId": 1,
          "value": 1.0
        },
        {
          "paramId": 2,
          "value": 1.0
        },
        {
          "paramId": 3,
          "value": 1.0
        },
        {
          "paramId": 4,
          "value": 1.0
        }
      ],
      "pos": [
        55,
        0
      ]
    },
    {
      "plugin": "LOGinstruments",
      "version": "0.6.0",
      "model": "Constant2",
      "params": [
        {
          "paramId": 0,
          "value": 0.0
        },
        {
          "paramId": 1,
          "value": 5.01000595
        },
        {
          "paramId": 2,
          "value": 0.0
        }
      ],
      "pos": [
        58,
        1
      ]
    },
    {
      "plugin": "AS",
      "version": "0.6.12",
      "model": "BPMClock",
      "params": [
        {
          "paramId": 0,
          "value": 93.539978
        },
        {
          "paramId": 1,
          "value": 1.0
        },
        {
          "paramId": 2,
          "value": 4.0
        },
        {
          "paramId": 3,
          "value": 1.0
        },
        {
          "paramId": 5,
          "value": 0.0
        },
        {
          "paramId": 4,
          "value": 0.0
        }
      ],
      "data": {
        "run": [
          1
        ]
      },
      "pos": [
        66,
        1
      ]
    },
    {
      "plugin": "AudibleInstruments",
      "version": "0.6.3",
      "model": "Braids",
      "params": [
        {
          "paramId": 6,
          "value": 0.741001129
        },
        {
          "paramId": 0,
          "value": 0.0
        },
        {
          "paramId": 1,
          "value": -2.0
        },
        {
          "paramId": 2,
          "value": 0.0
        },
        {
          "paramId": 3,
          "value": 0.453500181
        },
        {
          "paramId": 4,
          "value": 0.0
        },
        {
          "paramId": 5,
          "value": 0.413000137
        }
      ],
      "data": {
        "settings": [
          34,
          0,
          0,
          0,
          0,
          0,
          0,
          0,
          0,
          0,
          0,
          0,
          0,
          0,
          0,
          0,
          0,
          0,
          0,
          0
        ],
        "lowCpu": false
      },
      "pos": [
        72,
        1
      ]
    },
    {
      "plugin": "RJModules",
      "version": "0.6.1",
      "model": "Buttons",
      "params": [
        {
          "paramId": 0,
          "value": 0.0
        },
        {
          "paramId": 1,
          "value": 0.0
        },
        {
          "paramId": 2,
          "value": 0.0
        },
        {
          "paramId": 3,
          "value": 0.0
        },
        {
          "paramId": 4,
          "value": 0.0
        },
        {
          "paramId": 5,
          "value": 0.0
        },
        {
          "paramId": 6,
          "value": 0.0
        },
        {
          "paramId": 7,
          "value": 0.0
        },
        {
          "paramId": 8,
          "value": 0.0
        }
      ],
      "pos": [
        0,
        0
      ]
    },
    {
      "plugin": "AS",
      "version": "0.6.12",
      "model": "SEQ16",
      "params": [
        {
          "paramId": 0,
          "value": 2.0
        },
        {
          "paramId": 1,
          "value": 0.0
        },
        {
          "paramId": 2,
          "value": 0.0
        },
        {
          "paramId": 4,
          "value": 0.0
        },
        {
          "paramId": 5,
          "value": 0.0
        },
        {
          "paramId": 6,
          "value": 0.0
        },
        {
          "paramId": 7,
          "value": 0.0
        },
        {
          "paramId": 3,
          "value": 7.56250477
        },
        {
          "paramId": 8,
          "value": 0.329999983
        },
        {
          "paramId": 24,
          "value": 0.0
        },
        {
          "paramId": 40,
          "value": 0.0
        },
        {
          "paramId": 56,
          "value": 0.0
        },
        {
          "paramId": 9,
          "value": 0.749999523
        },
        {
          "paramId": 25,
          "value": 0.0
        },
        {
          "paramId": 41,
          "value": 0.0
        },
        {
          "paramId": 57,
          "value": 0.0
        },
        {
          "paramId": 10,
          "value": 1.0199995
        },
        {
          "paramId": 26,
          "value": 0.0
        },
        {
          "paramId": 42,
          "value": 0.0
        },
        {
          "paramId": 58,
          "value": 0.0
        },
        {
          "paramId": 11,
          "value": 1.46999979
        },
        {
          "paramId": 27,
          "value": 0.0
        },
        {
          "paramId": 43,
          "value": 0.0
        },
        {
          "paramId": 59,
          "value": 0.0
        },
        {
          "paramId": 12,
          "value": 1.73999906
        },
        {
          "paramId": 28,
          "value": 0.0
        },
        {
          "paramId": 44,
          "value": 0.0
        },
        {
          "paramId": 60,
          "value": 0.0
        },
        {
          "paramId": 13,
          "value": 2.00999951
        },
        {
          "paramId": 29,
          "value": 0.0
        },
        {
          "paramId": 45,
          "value": 0.0
        },
        {
          "paramId": 61,
          "value": 0.0
        },
        {
          "paramId": 14,
          "value": 2.28000069
        },
        {
          "paramId": 30,
          "value": 0.0
        },
        {
          "paramId": 46,
          "value": 0.0
        },
        {
          "paramId": 62,
          "value": 0.0
        },
        {
          "paramId": 15,
          "value": 0.0
        },
        {
          "paramId": 31,
          "value": 0.0
        },
        {
          "paramId": 47,
          "value": 0.0
        },
        {
          "paramId": 63,
          "value": 0.0
        },
        {
          "paramId": 16,
          "value": 0.0
        },
        {
          "paramId": 32,
          "value": 0.0
        },
        {
          "paramId": 48,
          "value": 0.0
        },
        {
          "paramId": 64,
          "value": 0.0
        },
        {
          "paramId": 17,
          "value": 0.0
        },
        {
          "paramId": 33,
          "value": 0.0
        },
        {
          "paramId": 49,
          "value": 0.0
        },
        {
          "paramId": 65,
          "value": 0.0
        },
        {
          "paramId": 18,
          "value": 0.0
        },
        {
          "paramId": 34,
          "value": 0.0
        },
        {
          "paramId": 50,
          "value": 0.0
        },
        {
          "paramId": 66,
          "value": 0.0
        },
        {
          "paramId": 19,
          "value": 0.0
        },
        {
          "paramId": 35,
          "value": 0.0
        },
        {
          "paramId": 51,
          "value": 0.0
        },
        {
          "paramId": 67,
          "value": 0.0
        },
        {
          "paramId": 20,
          "value": 0.0
        },
        {
          "paramId": 36,
          "value": 0.0
        },
        {
          "paramId": 52,
          "value": 0.0
        },
        {
          "paramId": 68,
          "value": 0.0
        },
        {
          "paramId": 21,
          "value": 0.0
        },
        {
          "paramId": 37,
          "value": 0.0
        },
        {
          "paramId": 53,
          "value": 0.0
        },
        {
          "paramId": 69,
          "value": 0.0
        },
        {
          "paramId": 22,
          "value": 0.0
        },
        {
          "paramId": 38,
          "value": 0.0
        },
        {
          "paramId": 54,
          "value": 0.0
        },
        {
          "paramId": 70,
          "value": 0.0
        },
        {
          "paramId": 23,
          "value": 0.0
        },
        {
          "paramId": 39,
          "value": 0.0
        },
        {
          "paramId": 55,
          "value": 0.0
        },
        {
          "paramId": 71,
          "value": 0.0
        }
      ],
      "data": {
        "running": true,
        "gates": [
          1,
          1,
          1,
          1,
          1,
          1,
          1,
          1,
          1,
          1,
          1,
          1,
          1,
          1,
          1,
          1
        ],
        "gateMode": 0
      },
      "pos": [
        14,
        1
      ]
    },
    {
      "plugin": "AudibleInstruments",
      "version": "0.6.3",
      "model": "Braids",
      "params": [
        {
          "paramId": 6,
          "value": 0.877502322
        },
        {
          "paramId": 0,
          "value": 0.0
        },
        {
          "paramId": 1,
          "value": 0.0
        },
        {
          "paramId": 2,
          "value": 0.0
        },
        {
          "paramId": 3,
          "value": 0.168499768
        },
        {
          "paramId": 4,
          "value": 0.0
        },
        {
          "paramId": 5,
          "value": 0.5
        }
      ],
      "data": {
        "settings": [
          40,
          0,
          0,
          0,
          0,
          0,
          0,
          0,
          0,
          0,
          0,
          0,
          0,
          0,
          0,
          0,
          0,
          0,
          0,
          0
        ],
        "lowCpu": false
      },
      "pos": [
        27,
        0
      ]
    },
    {
      "plugin": "AS",
      "version": "0.6.12",
      "model": "TriLFO",
      "params": [
        {
          "paramId": 2,
          "value": -1.42000055
        },
        {
          "paramId": 0,
          "value": 1.0
        },
        {
          "paramId": 1,
          "value": 1.0
        },
        {
          "paramId": 5,
          "value": -1.0
        },
        {
          "paramId": 3,
          "value": 1.0
        },
        {
          "paramId": 4,
          "value": 1.0
        },
        {
          "paramId": 8,
          "value": -1.0
        },
        {
          "paramId": 6,
          "value": 1.0
        },
        {
          "paramId": 7,
          "value": 1.0
        }
      ],
      "pos": [
        4,
        1
      ]
    },
    {
      "plugin": "AS",
      "version": "0.6.12",
      "model": "VCA",
      "params": [
        {
          "paramId": 0,
          "value": 0.5
        },
        {
          "paramId": 1,
          "value": 0.5
        },
        {
          "paramId": 2,
          "value": 1.0
        },
        {
          "paramId": 3,
          "value": 1.0
        }
      ],
      "pos": [
        21,
        0
      ]
    },
    {
      "plugin": "ML_modules",
      "version": "0.6.3",
      "model": "SH8",
      "params": [],
      "pos": [
        13,
        0
      ]
    },
    {
      "plugin": "Nohmad",
      "version": "0.6.0",
      "model": "Noise",
      "params": [
        {
          "paramId": 0,
          "value": 0.0659999996
        }
      ],
      "pos": [
        10,
        0
      ]
    }
  ],
  "wires": [
    {
      "color": "#c9b70e",
      "outputModuleId": 2,
      "outputId": 0,
      "inputModuleId": 0,
      "inputId": 0
    },
    {
      "color": "#c91847",
      "outputModuleId": 2,
      "outputId": 1,
      "inputModuleId": 0,
      "inputId": 1
    },
    {
      "color": "#0c8e15",
      "outputModuleId": 2,
      "outputId": 0,
      "inputModuleId": 1,
      "inputId": 0
    },
    {
      "color": "#0c8e15",
      "outputModuleId": 3,
      "outputId": 0,
      "inputModuleId": 4,
      "inputId": 1
    },
    {
      "color": "#0986ad",
      "outputModuleId": 3,
      "outputId": 1,
      "inputModuleId": 4,
      "inputId": 2
    },
    {
      "color": "#c9b70e",
      "outputModuleId": 4,
      "outputId": 0,
      "inputModuleId": 2,
      "inputId": 1
    },
    {
      "color": "#c9b70e",
      "outputModuleId": 6,
      "outputId": 0,
      "inputModuleId": 7,
      "inputId": 0
    },
    {
      "color": "#0c8e15",
      "outputModuleId": 8,
      "outputId": 8,
      "inputModuleId": 6,
      "inputId": 1
    },
    {
      "color": "#c9b70e",
      "outputModuleId": 6,
      "outputId": 1,
      "inputModuleId": 9,
      "inputId": 1
    },
    {
      "color": "#c91847",
      "outputModuleId": 9,
      "outputId": 1,
      "inputModuleId": 3,
      "inputId": 0
    },
    {
      "color": "#0c8e15",
      "outputModuleId": 7,
      "outputId": 0,
      "inputModuleId": 2,
      "inputId": 4
    },
    {
      "color": "#0986ad",
      "outputModuleId": 8,
      "outputId": 8,
      "inputModuleId": 9,
      "inputId": 2
    },
    {
      "color": "#c91847",
      "outputModuleId": 10,
      "outputId": 0,
      "inputModuleId": 2,
      "inputId": 7
    },
    {
      "color": "#0986ad",
      "outputModuleId": 11,
      "outputId": 0,
      "inputModuleId": 12,
      "inputId": 1
    },
    {
      "color": "#c91847",
      "outputModuleId": 6,
      "outputId": 1,
      "inputModuleId": 13,
      "inputId": 8
    },
    {
      "color": "#0c8e15",
      "outputModuleId": 13,
      "outputId": 0,
      "inputModuleId": 10,
      "inputId": 4
    },
    {
      "color": "#c9b70e",
      "outputModuleId": 14,
      "outputId": 0,
      "inputModuleId": 12,
      "inputId": 3
    },
    {
      "color": "#0c8e15",
      "outputModuleId": 12,
      "outputId": 1,
      "inputModuleId": 13,
      "inputId": 0
    },
    {
      "color": "#0986ad",
      "outputModuleId": 2,
      "outputId": 1,
      "inputModuleId": 1,
      "inputId": 1
    }
  ]
}