{
  "version": "0.6.2b",
  "modules": [
    {
      "plugin": "Core",
      "version": "0.6.2b",
      "model": "AudioInterface",
      "params": [],
      "data": {
        "audio": {
          "driver": 6,
          "deviceName": "Headphones (High Definition Audio Device)",
          "offset": 0,
          "maxChannels": 8,
          "sampleRate": 48000,
          "blockSize": 256
        }
      },
      "pos": [
        89,
        0
      ]
    },
    {
      "plugin": "Fundamental",
      "version": "0.6.2",
      "model": "Scope",
      "params": [
        {
          "paramId": 0,
          "value": 0.0
        },
        {
          "paramId": 1,
          "value": 0.0
        },
        {
          "paramId": 2,
          "value": 0.0
        },
        {
          "paramId": 3,
          "value": 0.0
        },
        {
          "paramId": 4,
          "value": -14.0
        },
        {
          "paramId": 5,
          "value": 0.0
        },
        {
          "paramId": 6,
          "value": 0.0
        },
        {
          "paramId": 7,
          "value": 0.0
        }
      ],
      "data": {
        "lissajous": 0,
        "external": 1
      },
      "pos": [
        89,
        1
      ]
    },
    {
      "plugin": "AS",
      "version": "0.6.12",
      "model": "Mixer8ch",
      "params": [
        {
          "paramId": 9,
          "value": 0.0
        },
        {
          "paramId": 10,
          "value": 0.0
        },
        {
          "paramId": 11,
          "value": 0.0
        },
        {
          "paramId": 12,
          "value": 0.0
        },
        {
          "paramId": 13,
          "value": 0.0
        },
        {
          "paramId": 14,
          "value": 0.0
        },
        {
          "paramId": 15,
          "value": 0.0
        },
        {
          "paramId": 16,
          "value": 0.0
        },
        {
          "paramId": 1,
          "value": 0.800000012
        },
        {
          "paramId": 2,
          "value": 0.800000012
        },
        {
          "paramId": 3,
          "value": 0.800000012
        },
        {
          "paramId": 4,
          "value": 0.800000012
        },
        {
          "paramId": 5,
          "value": 0.800000012
        },
        {
          "paramId": 6,
          "value": 0.800000012
        },
        {
          "paramId": 7,
          "value": 0.800000012
        },
        {
          "paramId": 8,
          "value": 0.800000012
        },
        {
          "paramId": 17,
          "value": 0.0
        },
        {
          "paramId": 18,
          "value": 0.0
        },
        {
          "paramId": 19,
          "value": 0.0
        },
        {
          "paramId": 20,
          "value": 0.0
        },
        {
          "paramId": 21,
          "value": 0.0
        },
        {
          "paramId": 22,
          "value": 0.0
        },
        {
          "paramId": 23,
          "value": 0.0
        },
        {
          "paramId": 24,
          "value": 0.0
        },
        {
          "paramId": 0,
          "value": 0.800000012
        },
        {
          "paramId": 25,
          "value": 0.0
        }
      ],
      "data": {
        "as_MixerMutes": [
          0,
          0,
          0,
          0,
          0,
          0,
          0,
          0,
          0
        ]
      },
      "pos": [
        63,
        0
      ]
    },
    {
      "plugin": "NYSTHI",
      "version": "0.6.30",
      "model": "complexSimpler",
      "params": [
        {
          "paramId": 6,
          "value": 0.0
        },
        {
          "paramId": 0,
          "value": 1.0
        },
        {
          "paramId": 1,
          "value": 0.0
        },
        {
          "paramId": 2,
          "value": 0.0
        },
        {
          "paramId": 3,
          "value": 0.0
        },
        {
          "paramId": 4,
          "value": 1.0
        },
        {
          "paramId": 5,
          "value": 0.0
        },
        {
          "paramId": 8,
          "value": 0.0
        },
        {
          "paramId": 9,
          "value": 0.0
        },
        {
          "paramId": 7,
          "value": 0.0
        },
        {
          "paramId": 10,
          "value": 0.0
        },
        {
          "paramId": 11,
          "value": 1.0
        },
        {
          "paramId": 12,
          "value": 2.0
        },
        {
          "paramId": 15,
          "value": 0.0
        },
        {
          "paramId": 13,
          "value": 0.0
        },
        {
          "paramId": 14,
          "value": 0.0
        }
      ],
      "data": {
        "nysthi_id": "SIMPLER_lRIGMCZ8",
        "m_nysthi_file_id": "C:\\Users\\Matthew\\Documents/Rack/plugins/NYSTHI/cache/SIMPLER_lRIGMCZ8_20181120_221047_E2Px6I.wav",
        "m_original_file_name": "imagine_reading_a_post.wav",
        "m_gated": false
      },
      "pos": [
        47,
        0
      ]
    },
    {
      "plugin": "AS",
      "version": "0.6.12",
      "model": "BPMClock",
      "params": [
        {
          "paramId": 0,
          "value": 232.140274
        },
        {
          "paramId": 1,
          "value": 1.0
        },
        {
          "paramId": 2,
          "value": 4.0
        },
        {
          "paramId": 3,
          "value": 1.0
        },
        {
          "paramId": 5,
          "value": 0.0
        },
        {
          "paramId": 4,
          "value": 0.0
        }
      ],
      "data": {
        "run": [
          1
        ]
      },
      "pos": [
        41,
        0
      ]
    },
    {
      "plugin": "AS",
      "version": "0.6.12",
      "model": "VCA",
      "params": [
        {
          "paramId": 0,
          "value": 1.0
        },
        {
          "paramId": 1,
          "value": 0.992000103
        },
        {
          "paramId": 2,
          "value": 1.0
        },
        {
          "paramId": 3,
          "value": 1.0
        }
      ],
      "pos": [
        35,
        0
      ]
    },
    {
      "plugin": "LOGinstruments",
      "version": "0.6.0",
      "model": "Constant2",
      "params": [
        {
          "paramId": 0,
          "value": 0.0
        },
        {
          "paramId": 1,
          "value": 10.0
        },
        {
          "paramId": 2,
          "value": 0.0
        }
      ],
      "pos": [
        27,
        0
      ]
    },
    {
      "plugin": "Bogaudio",
      "version": "0.6.10",
      "model": "Bogaudio-LFO",
      "params": [
        {
          "paramId": 0,
          "value": 2.73000097
        },
        {
          "paramId": 1,
          "value": 0.0
        },
        {
          "paramId": 2,
          "value": 0.0
        },
        {
          "paramId": 3,
          "value": 0.0
        },
        {
          "paramId": 4,
          "value": 1.0
        },
        {
          "paramId": 5,
          "value": 1.0
        }
      ],
      "pos": [
        9,
        0
      ]
    },
    {
      "plugin": "AudibleInstruments",
      "version": "0.6.3",
      "model": "Branches",
      "params": [
        {
          "paramId": 0,
          "value": 0.783500314
        },
        {
          "paramId": 2,
          "value": 0.0
        },
        {
          "paramId": 1,
          "value": 0.5
        },
        {
          "paramId": 3,
          "value": 0.0
        }
      ],
      "data": {
        "modes": [
          false,
          false
        ]
      },
      "pos": [
        3,
        0
      ]
    },
    {
      "plugin": "ML_modules",
      "version": "0.6.3",
      "model": "SH8",
      "params": [],
      "pos": [
        19,
        0
      ]
    },
    {
      "plugin": "Bogaudio",
      "version": "0.6.10",
      "model": "Bogaudio-Pan",
      "params": [
        {
          "paramId": 0,
          "value": 0.0
        },
        {
          "paramId": 1,
          "value": 0.0
        }
      ],
      "pos": [
        54,
        0
      ]
    },
    {
      "plugin": "Bogaudio",
      "version": "0.6.10",
      "model": "Bogaudio-LFO",
      "params": [
        {
          "paramId": 0,
          "value": -3.13949919
        },
        {
          "paramId": 1,
          "value": 0.0
        },
        {
          "paramId": 2,
          "value": 0.0
        },
        {
          "paramId": 3,
          "value": 0.0
        },
        {
          "paramId": 4,
          "value": 0.0
        },
        {
          "paramId": 5,
          "value": 1.0
        }
      ],
      "pos": [
        79,
        1
      ]
    },
    {
      "plugin": "AS",
      "version": "0.6.12",
      "model": "ReverbStereoFx",
      "params": [
        {
          "paramId": 0,
          "value": 0.56335026
        },
        {
          "paramId": 1,
          "value": 1.0
        },
        {
          "paramId": 2,
          "value": 0.574500024
        },
        {
          "paramId": 3,
          "value": 0.0
        }
      ],
      "data": {
        "as_FxBypass": [
          false
        ]
      },
      "pos": [
        57,
        0
      ]
    }
  ],
  "wires": [
    {
      "color": "#0c8e15",
      "outputModuleId": 2,
      "outputId": 0,
      "inputModuleId": 0,
      "inputId": 0
    },
    {
      "color": "#0986ad",
      "outputModuleId": 2,
      "outputId": 1,
      "inputModuleId": 0,
      "inputId": 1
    },
    {
      "color": "#c91847",
      "outputModuleId": 4,
      "outputId": 2,
      "inputModuleId": 3,
      "inputId": 5
    },
    {
      "color": "#0c8e15",
      "outputModuleId": 6,
      "outputId": 1,
      "inputModuleId": 5,
      "inputId": 1
    },
    {
      "color": "#0986ad",
      "outputModuleId": 5,
      "outputId": 0,
      "inputModuleId": 1,
      "inputId": 0
    },
    {
      "color": "#c9b70e",
      "outputModuleId": 7,
      "outputId": 0,
      "inputModuleId": 9,
      "inputId": 0
    },
    {
      "color": "#0c8e15",
      "outputModuleId": 4,
      "outputId": 2,
      "inputModuleId": 8,
      "inputId": 0
    },
    {
      "color": "#0986ad",
      "outputModuleId": 8,
      "outputId": 0,
      "inputModuleId": 9,
      "inputId": 8
    },
    {
      "color": "#c9b70e",
      "outputModuleId": 9,
      "outputId": 0,
      "inputModuleId": 5,
      "inputId": 0
    },
    {
      "color": "#c91847",
      "outputModuleId": 5,
      "outputId": 0,
      "inputModuleId": 3,
      "inputId": 7
    },
    {
      "color": "#c91847",
      "outputModuleId": 3,
      "outputId": 0,
      "inputModuleId": 10,
      "inputId": 1
    },
    {
      "color": "#c9b70e",
      "outputModuleId": 11,
      "outputId": 4,
      "inputModuleId": 10,
      "inputId": 0
    },
    {
      "color": "#c91847",
      "outputModuleId": 10,
      "outputId": 0,
      "inputModuleId": 12,
      "inputId": 0
    },
    {
      "color": "#0c8e15",
      "outputModuleId": 10,
      "outputId": 1,
      "inputModuleId": 12,
      "inputId": 1
    },
    {
      "color": "#0986ad",
      "outputModuleId": 12,
      "outputId": 0,
      "inputModuleId": 2,
      "inputId": 25
    },
    {
      "color": "#c9b70e",
      "outputModuleId": 12,
      "outputId": 1,
      "inputModuleId": 2,
      "inputId": 26
    }
  ]
}